# xmcd CD database file
#
# Track frame offsets:
#	150
#	13659
#	29589
#	46527
#	67054
#	84420
#	107494
#	125408
#	142729
#	159161
#	177676
#
# Disc length: 2985 seconds
#
# Revision: 2
# Processed by: cddbd v1.5.2PL0 Copyright (c) Steve Scherf et al.
# Submitted via: CDex 1.51
#
DISCID=860ba70b
DTITLE=Jon Randall - Willin'
DYEAR=1999
DGENRE=Country
TTITLE0=Baby Make The Sun Go Down
TTITLE1=Can't Find The Words
TTITLE2=Willin'
TTITLE3=Can't Hurt Anymore
TTITLE4=Mountain Of Regret
TTITLE5=Afraid Of The Dark
TTITLE6=Sweet Lorretta
TTITLE7=Walk The Line
TTITLE8=Blew Me Away
TTITLE9=Breaking All The Rules
TTITLE10=Lonely Street
EXTD=YEAR: 1999
EXTT0=
EXTT1=
EXTT2=
EXTT3=
EXTT4=
EXTT5=
EXTT6=
EXTT7=
EXTT8=
EXTT9=
EXTT10=
PLAYORDER=
